<svg width="70" height="88" viewBox="0 0 70 88" fill="none" xmlns="http://www.w3.org/2000/svg">
<path d="M7.4353 27.6248C7.4353 22.9303 11.2409 19.1248 15.9353 19.1248H40.9014C45.5958 19.1248 49.4014 22.9303 49.4014 27.6248V76.9339C49.4014 81.6283 45.5958 85.4339 40.9014 85.4339H15.9353C11.2409 85.4339 7.4353 81.6283 7.4353 76.9339V27.6248Z" fill="white" stroke="#D1193E" stroke-width="3"/>
<line y1="-1.5" x2="54.836" y2="-1.5" transform="matrix(0.999986 -0.00522121 0.00712072 0.999975 1 87.2195)" stroke="#D1193E" stroke-width="3"/>
<ellipse cx="42.2646" cy="52.3965" rx="2.05638" ry="1.75614" fill="#D1193E"/>
<line y1="-1.5" x2="12.4584" y2="-1.5" transform="matrix(0.0880313 -0.996118 0.997929 0.0643193 44.321 13.4102)" stroke="#D1193E" stroke-width="3"/>
<line y1="-1.5" x2="14.1133" y2="-1.5" transform="matrix(0.906413 -0.422394 0.538434 0.842668 57.2075 20.7764)" stroke="#D1193E" stroke-width="3"/>
<line y1="-1.5" x2="12.8546" y2="-1.5" transform="matrix(0.481109 -0.876661 0.928398 0.371587 52.8206 14.8447)" stroke="#D1193E" stroke-width="3"/>
</svg>
